# xmcd
#
# Track frame offsets: 
#        150
#        15553
#        28334
#        40606
#        51533
#        61469
#        75603
#        89356
#        98821
#        110081
#        126522
#        137737
#        153205
#        169412
#        182001
#        195705
#        206652
#        218529
#        234969
#        252497
#        264523
#        279704
#        295494
#        313021
#        335220
#
# Disc length: 4519 seconds
#
# Revision: 0
# Processed by: cddbd v1.5.2PL0 Copyright (c) Steve Scherf et al.
# Submitted via: ExactAudioCopy v0.99pb5
#
DISCID=8011a519
DTITLE=Various Artist - King Of The Road - CD 4 - I Need More Of You
DYEAR=2010
DGENRE=Country
TTITLE0=Bellamy Brothers - I need more of you
TTITLE1=Laura Lee - 9 to 5
TTITLE2=Ralf Paulsen - Die Western von gestern (Version 1994)
TTITLE3=Jonny Hill - Die Arbeit hört nie auf
TTITLE4=Johnny Cash - Ballad of a teenage queen
TTITLE5=John Brack - The wabash cannonball
TTITLE6=Martin Lauer - Taxi nach Texas
TTITLE7=Merle Haggard - The legend of Bonnie and Clyde (Neuaufnahme)
TTITLE8=Kendalls - Heaven's just a sin away
TTITLE9=Linda Feller - Warum kann ich nicht vergessen
TTITLE10=Tom Astor and Johnny Cash - Niemand schaut der Zukunft in die K
TTITLE10=arten
TTITLE11=Truck Stop - Square dance darling
TTITLE12=Alabama - She and I
TTITLE13=Bille Jo Spears - '57 Chevrolet (Neuaufnahme)
TTITLE14=Gunter Gabriel - Hey Boss - ich brauch mehr Geld
TTITLE15=Freddy Quinn - Kann Liebe alles verzeihn
TTITLE16=Conway Twitty - I can't see me without you
TTITLE17=Volker Lechtenbrink - Der Spieler
TTITLE18=Tom Astor - Mit einer starken Frau
TTITLE19=John Brack - Rollin' in my sweet baby's arms
TTITLE20=Dough Hawkins - Achy breaky heart
TTITLE21=John McGraw - Southern nights
TTITLE22=Jimmy Lawton - Orange blossom special
TTITLE23=Bobbejaan - Ich steh' an der Bar und habe kein Geld
TTITLE24=Data Track
EXTD=
EXTT0=
EXTT1=
EXTT2=
EXTT3=
EXTT4=
EXTT5=
EXTT6=
EXTT7=
EXTT8=
EXTT9=
EXTT10=
EXTT11=
EXTT12=
EXTT13=
EXTT14=
EXTT15=
EXTT16=
EXTT17=
EXTT18=
EXTT19=
EXTT20=
EXTT21=
EXTT22=
EXTT23=
EXTT24=
PLAYORDER=
